<svg xmlns="http://www.w3.org/2000/svg" width="344" height="60" viewBox="0 0 344 60" version="1.1"><path d="M 17.213 29.482 C 7.746 45.697, 0 59.197, 0 59.482 C 0 59.767, 2.588 59.988, 5.750 59.974 L 11.500 59.947 23 39.579 C 29.325 28.376, 34.774 19.376, 35.110 19.578 C 35.445 19.780, 40.811 28.957, 47.034 39.972 L 58.349 60 64.198 60 L 70.048 60 68.274 56.656 C 63.936 48.479, 35.445 0.041, 34.963 0.021 C 34.667 0.010, 26.679 13.267, 17.213 29.482 M 27.661 47.628 C 23.960 54.028, 21.110 59.443, 21.328 59.661 C 21.546 59.880, 27.839 59.933, 35.312 59.779 L 48.900 59.500 42.590 48.690 C 39.120 42.745, 35.855 37.455, 35.335 36.935 C 34.742 36.342, 31.885 40.322, 27.661 47.628" stroke="none" fill="#0484fc" fill-rule="evenodd"/><path d="M 100.129 16.189 C 99.110 18.560, 95.911 25.900, 93.020 32.500 C 90.129 39.100, 86.259 47.987, 84.420 52.250 L 81.076 60 84.613 60 C 87.981 60, 88.273 59.714, 90.739 54 L 93.327 48 103.077 48 L 112.826 48 111.694 45 C 110.576 42.040, 110.464 42, 103.174 42 C 97.657 42, 95.916 41.683, 96.298 40.750 C 100.914 29.470, 104.426 21.349, 104.948 20.749 C 105.308 20.336, 109.347 28.999, 113.925 39.999 L 122.249 60 125.624 60 C 127.481 60, 129 59.624, 129 59.165 C 129 58.705, 124.535 48.018, 119.079 35.415 L 109.157 12.500 105.569 12.189 C 102.193 11.896, 101.872 12.132, 100.129 16.189 M 134 35.918 L 134 60 137.500 60 L 141 60 141 49.500 L 141 39 146.019 39 L 151.039 39 155.954 49.500 C 160.847 59.951, 160.886 60, 164.435 60 C 166.396 60, 168 59.767, 168 59.482 C 168 59.197, 165.710 54.400, 162.911 48.822 C 158.239 39.513, 157.968 38.598, 159.605 37.681 C 167.791 33.100, 168.946 22.159, 161.953 15.452 C 158.929 12.552, 158.654 12.494, 146.437 12.168 L 134 11.837 134 35.918 M 174 15 L 174 18 182 18 L 190 18 190 39 L 190 60 193 60 L 196 60 196 39 L 196 18 204.500 18 L 213 18 213 15 L 213 12 193.500 12 L 174 12 174 15 M 220 36 L 220 60 236.500 60 L 253 60 253 57 L 253 54 240 54 L 227 54 227 46.500 L 227 39 238 39 L 249 39 249 36 L 249 33 238 33 L 227 33 227 25.500 L 227 18 239.500 18 L 252 18 252 15 L 252 12 236 12 L 220 12 220 36 M 261 36 L 261 60 275.465 60 C 288.742 60, 290.015 59.841, 290.965 58.066 C 293.018 54.230, 292.370 54, 279.500 54 L 267 54 267 33 L 267 12 264 12 L 261 12 261 36 M 305.132 35.199 C 299.540 48.014, 294.972 58.837, 294.982 59.250 C 294.992 59.663, 296.520 60, 298.378 60 C 301.591 60, 301.866 59.706, 304 54 L 306.244 48 316.122 48 C 321.555 48, 326 47.796, 326 47.547 C 326 47.298, 325.486 45.966, 324.857 44.587 C 323.811 42.290, 323.103 42.055, 316.444 41.789 L 309.174 41.500 313.725 30.665 C 316.793 23.362, 318.546 20.265, 319.104 21.165 C 319.559 21.899, 323.418 30.937, 327.680 41.250 L 335.428 60 339.169 60 L 342.911 60 340.009 53.250 C 338.413 49.537, 333.799 38.850, 329.755 29.500 L 322.403 12.500 318.852 12.199 L 315.301 11.897 305.132 35.199 M 141 25.500 L 141 33 148.311 33 C 157.252 33, 160 31.146, 160 25.116 C 160 19.341, 157.864 18, 148.671 18 L 141 18 141 25.500" stroke="none" fill="#fcfcfc" fill-rule="evenodd"/></svg>